<?xml version="1.0" encoding="utf-8"?>
<svg version="1.1" id="logo" xmlns="http://www.w3.org/2000/svg" xmlns:xlink="http://www.w3.org/1999/xlink" x="0px" y="0px"
	 viewBox="0 0 600 600" style="enable-background:new 0 0 600 600;" xml:space="preserve">
	<path fill="#414B46" d="M185.4,200.1c0,0,1.1,2.7,3.3,7.7s5.7,11.8,10.8,20c5.5,8,12.6,17.1,22.3,25.6c9.6,8.5,21.6,16.4,35.5,22
		c7.1,2.5,14.3,5.1,22.2,6.2c1,0.2,1.9,0.3,2.9,0.5l1.5,0.3l1.5,0.1c2,0.2,4,0.4,6,0.6l1.5,0.2c0.5,0,1,0,1.5,0c1,0,2,0,3.1,0
		c1,0,2,0,3.1,0.1h1.5h0.2c-1-0.1-0.1,0-0.3,0h0.5h0.9c2.4-0.1,5.2-0.1,6.8-0.4l2.8-0.3l3.1-0.4c4.1-0.5,8.2-1.5,12.3-2.5
		c8.1-2.3,16.1-5.4,23.7-9.5c15.1-8.2,28.5-20.4,38.1-35.2c2.3-3.7,4.6-7.5,6.5-11.5s3.6-8.1,5-12.3c0.8-2.1,1.3-4.2,1.9-6.4
		l0.7-3.2c0.3-1.1,0.5-2.2,0.7-3.3l0.6-3.3l0.4-3.3c0.2-1.1,0.3-2.2,0.4-3.3l0.1-1.7l0.1-0.8v-0.4v-0.2c0,0.2,0-0.8,0,0.5l0.2-4.3
		l0.1-2.1v-1.4v-2.9l-0.2-3.3c-0.1-2.2-0.5-4.4-0.6-6.6c-0.4-2.2-0.6-4.4-1.1-6.5c-0.8-4.4-2-8.6-3.4-12.8c-1.4-4.2-3.1-8.3-5-12.3
		c-7.7-15.9-19.4-29.7-33.3-39.8c-7-5.1-14.5-9.1-22.2-12.4c-7.8-3.2-15.9-5.3-24-6.8l-0.8-0.1l-0.4-0.1c0.3,0-1-0.1,0.7,0h-0.2
		l-1.8-0.2c-1.2-0.1-2.4-0.2-3.6-0.4c-1.2-0.1-2.4-0.2-3.6-0.4l-1.8-0.2h-1.4c-1.8,0-3.6-0.1-5.4-0.2l-1.4-0.1l-1.5,0.1
		c-1,0-2,0.1-3,0.1c-7.9,0.1-15.5,1.7-22.8,3.3c-14.5,3.8-27.4,10.1-38,17.3s-18.9,15.3-25.4,22.5c-6.1,7.4-10.6,13.8-13.3,18.4
		c-2.8,4.7-4.2,7.1-4.2,7.1s0.4-2.8,1.2-8.3c0.9-5.4,3-13.3,6.9-23.1c4.2-9.6,10.5-21.1,20.5-32.5c1.3-1.4,2.5-2.9,3.8-4.4
		c1.4-1.4,2.9-2.7,4.3-4.1c1.5-1.4,2.9-2.9,4.5-4.2c1.6-1.3,3.3-2.7,5-4c6.7-5.5,14.7-10.1,23.2-14.6c8.8-4,18.3-7.7,28.7-10
		c1.3-0.3,2.6-0.6,3.9-0.9l2-0.4l2.1-0.1c2.9-0.4,5.8-0.7,8.7-1.1l2.2-0.3l1.8-0.1c1.2-0.1,2.4-0.1,3.6-0.2c1.2-0.1,2.4-0.1,3.6-0.2
		l1.8-0.1l3,0.1c11.4,0.1,23.2,1.8,35,4.9c5.8,1.6,11.8,3.5,17.5,6c5.8,2.4,11.4,5.2,17,8.4C411.6,65.4,431,85,444,108.9
		c6.4,12,11.4,24.9,14.3,38.5c0.8,3.4,1.3,6.8,1.9,10.2c0.4,3.4,0.9,6.9,1.1,10.3l0.3,5.2l0.1,5.7v2.8l-0.1,2.1l-0.2,4.3
		c-0.1,1.5,0,0.6-0.1,1v0.3l-0.1,0.6l-0.1,1.3l-0.2,2.6c-0.1,1.7-0.3,3.4-0.6,5.2l-0.7,5.1l-1,5.1c-0.6,3.4-1.6,6.7-2.4,10.1
		c-1,3.3-2,6.6-3.2,9.9c-4.6,13-11.2,25.3-19.1,36.3c-16,22.1-37.7,38.9-61.2,48.8c-11.8,5-23.9,8.2-36,9.9c-6,0.7-12,1.3-17.9,1.3
		c-1.5,0-2.9,0-4.4,0c-1.6-0.1-3.1-0.1-4.7-0.2c-3.4-0.1-5.5-0.5-8-0.7l-2.4-0.3l-2.1-0.4c-1.4-0.2-2.8-0.5-4.2-0.7
		c-1.4-0.2-2.7-0.5-4.1-0.7l-2-0.4l-2-0.5c-2.7-0.7-5.3-1.4-7.9-2.1L275,319l-1.9-0.7c-1.3-0.5-2.5-0.9-3.7-1.4
		c-10-3.5-19-8.5-27.1-13.6c-16.1-10.8-28.2-23.7-36.5-36.3c-8.4-12.6-13.3-24.8-16.2-34.8c-2.6-10.1-3.7-18.4-3.9-23.8
		C185.4,203,185.4,200.1,185.4,200.1z"/>
	<path fill="#ABB023" d="M300,325c0,0,1.3,2.6,3.8,7.4c2.5,4.9,6.5,11.4,12.1,19.2c5.9,7.6,13.7,16.2,23.8,24.1
		c10.1,7.9,22.6,15,36.8,19.7c7.2,2,14.6,4.2,22.6,4.8c1,0.1,2,0.2,2.9,0.3l1.5,0.2l1.5,0.1c2,0.1,4,0.2,6,0.2l1.5,0.1
		c0.5,0,1,0,1.5-0.1c1-0.1,2-0.1,3-0.2c1,0,2-0.1,3.1-0.1l1.5-0.1h0.2c-1,0-0.1,0-0.3,0h0.5l0.9-0.1c2.4-0.2,5.2-0.5,6.7-0.8
		l2.8-0.4l3-0.6c4.1-0.8,8.1-2,12.1-3.3c7.9-2.8,15.7-6.4,23-11c14.6-9.2,27.1-22.2,35.8-37.6c2.1-3.9,4.1-7.8,5.7-11.9
		c1.6-4.1,3.1-8.3,4.2-12.6c0.6-2.1,1-4.3,1.5-6.5l0.5-3.3c0.2-1.1,0.4-2.2,0.5-3.3l0.4-3.3l0.2-3.3c0.1-1.1,0.2-2.2,0.2-3.3v-1.7
		v-0.8v-0.4v-0.2c0,0.2,0-0.8,0,0.5l-0.1-4.3v-2.1l-0.1-1.4l-0.2-2.9l-0.4-3.3c-0.2-2.2-0.7-4.4-1-6.6c-0.5-2.2-0.9-4.3-1.5-6.5
		c-1.1-4.3-2.6-8.4-4.2-12.6c-1.6-4.1-3.6-8-5.8-11.9c-8.7-15.3-21.2-28.4-35.8-37.5c-7.3-4.6-15-8.2-23-11
		c-8-2.7-16.2-4.3-24.4-5.2l-0.8-0.1h-0.4c0.3,0-1,0,0.7,0h-0.2l-1.8-0.1c-1.2,0-2.4-0.1-3.6-0.1s-2.4-0.1-3.6-0.1l-1.8-0.1
		l-1.4,0.1c-1.8,0.1-3.6,0.1-5.4,0.2h-1.4l-1.5,0.2c-1,0.1-2,0.2-2.9,0.3c-7.9,0.6-15.3,2.7-22.5,4.8c-14.2,4.7-26.7,11.8-36.8,19.7
		c-10.2,7.9-17.9,16.5-23.9,24.1c-5.6,7.8-9.7,14.5-12.1,19.2c-2.5,4.8-3.8,7.4-3.8,7.4s0.2-2.9,0.7-8.3c0.6-5.5,2.1-13.4,5.4-23.5
		c3.6-9.9,9.2-21.7,18.4-33.7c1.2-1.5,2.3-3,3.5-4.6c1.3-1.4,2.7-2.9,4-4.4c1.4-1.5,2.8-3,4.3-4.5c1.5-1.4,3.1-2.9,4.7-4.3
		c6.4-5.9,14-11,22.3-16.1c8.5-4.6,17.8-8.9,28-11.8c1.3-0.4,2.5-0.8,3.8-1.2l1.9-0.6l2.1-0.4c2.8-0.5,5.7-1.1,8.6-1.6l2.2-0.4
		l1.8-0.2c1.2-0.1,2.4-0.3,3.6-0.4c1.2-0.1,2.4-0.3,3.6-0.4l1.8-0.2l3-0.1c11.4-0.6,23.2,0.3,35.2,2.6c5.9,1.3,12,2.8,17.8,4.9
		c5.9,2,11.7,4.5,17.5,7.3c22.8,11.4,43.5,29.6,58,52.7c7.2,11.5,13,24.2,16.8,37.5c1,3.3,1.7,6.7,2.6,10.1
		c0.6,3.4,1.4,6.8,1.8,10.2l0.7,5.2l0.4,5.6l0.2,2.8l0.1,2.1l0.1,4.3c0,1.5,0,0.6,0,1v0.3v0.6v1.3l-0.1,2.6c0,1.7-0.1,3.5-0.3,5.2
		l-0.4,5.2l-0.7,5.2c-0.4,3.4-1.2,6.8-1.8,10.2c-0.8,3.4-1.5,6.8-2.6,10.1c-3.8,13.3-9.6,25.9-16.8,37.5c-14.5,23-35.1,41.3-58,52.7
		c-11.4,5.7-23.4,9.8-35.3,12.2c-6,1.1-11.9,2-17.8,2.4c-1.5,0.1-2.9,0.2-4.4,0.3c-1.6,0-3.1,0.1-4.7,0.1c-3.4,0.1-5.5-0.1-8-0.2
		l-2.4-0.1l-2.1-0.2c-1.4-0.2-2.8-0.3-4.2-0.5c-1.4-0.2-2.8-0.3-4.1-0.5l-2.1-0.2l-2-0.4c-2.7-0.5-5.4-1.1-8-1.6l-2-0.4l-1.9-0.6
		c-1.3-0.4-2.6-0.8-3.8-1.2c-10.2-2.9-19.5-7.2-27.9-11.8c-16.8-9.7-29.6-21.9-38.8-33.9c-9.2-12-14.8-23.9-18.4-33.7
		c-3.3-9.9-4.9-18.2-5.4-23.5C300.2,327.9,300,325,300,325z"/>
	<path fill="#414B46" d="M274.4,292c0,0-2.6,1.3-7.4,3.8c-4.9,2.5-11.4,6.5-19.2,12.1c-7.6,6-16.2,13.7-24.1,23.9
		c-7.9,10.1-15,22.6-19.7,36.8c-2,7.2-4.2,14.6-4.8,22.6c-0.1,1-0.2,2-0.3,2.9l-0.2,1.5v1.5c-0.1,2-0.2,4-0.2,6l-0.1,1.5
		c0,0.5,0,1,0.1,1.5c0.1,1,0.1,2,0.2,3.1c0,1,0.1,2,0.1,3.1l0.1,1.5v0.2c0-1,0-0.1,0-0.3v0.5l0.1,0.9c0.3,2.4,0.5,5.2,0.8,6.7
		l0.4,2.8l0.6,3c0.8,4.1,2,8.1,3.3,12.1c2.8,7.9,6.4,15.7,11,23c9.2,14.6,22.2,27.1,37.6,35.8c3.9,2.1,7.8,4.1,11.9,5.7
		s8.3,3.1,12.6,4.2c2.1,0.6,4.3,1,6.5,1.5l3.3,0.5c1.1,0.2,2.2,0.4,3.3,0.5l3.3,0.4l3.3,0.2c1.1,0.1,2.2,0.2,3.3,0.2h1.7h0.8h0.4
		h0.2c-0.2,0,0.8,0-0.5,0l4.3-0.1h2.1l1.4-0.1l2.9-0.2l3.3-0.4c2.2-0.2,4.4-0.7,6.6-1c2.2-0.5,4.3-0.9,6.5-1.5
		c4.3-1.1,8.5-2.6,12.6-4.2s8-3.6,11.9-5.8c15.3-8.7,28.4-21.2,37.5-35.8c4.6-7.3,8.2-15,11-23c2.7-8,4.3-16.2,5.2-24.4l0.1-0.8V414
		c0,0.3,0-1,0,0.7v-0.2l0.1-1.8c0-1.2,0.1-2.4,0.1-3.6s0.1-2.4,0.1-3.6v-1.8l-0.1-1.4c-0.1-1.8-0.1-3.6-0.2-5.4v-1.4l-0.2-1.5
		c-0.1-1-0.2-2-0.3-2.9c-0.6-7.9-2.7-15.3-4.8-22.6c-4.7-14.2-11.8-26.7-19.7-36.8c-7.9-10.2-16.5-17.9-24.1-23.9
		c-7.8-5.6-14.5-9.7-19.3-12.1c-4.8-2.5-7.4-3.8-7.4-3.8s2.9,0.2,8.3,0.7c5.5,0.6,13.4,2.1,23.5,5.4c9.9,3.6,21.7,9.2,33.7,18.4
		c1.5,1.2,3,2.3,4.6,3.5c1.4,1.3,2.9,2.7,4.4,4c1.5,1.4,3,2.8,4.5,4.3c1.4,1.5,2.9,3.1,4.3,4.7c5.9,6.4,11,14,16.1,22.3
		c4.6,8.5,8.9,17.8,11.8,28c0.4,1.3,0.8,2.5,1.2,3.8l0.6,1.9l0.4,2.1c0.5,2.8,1.1,5.7,1.6,8.6l0.4,2.2l0.2,1.8
		c0.1,1.2,0.3,2.4,0.4,3.6s0.3,2.4,0.4,3.6l0.2,1.8l0.1,3c0.6,11.4-0.3,23.3-2.6,35.2c-1.3,5.9-2.8,12-4.9,17.8
		c-2,5.9-4.5,11.7-7.3,17.5c-11.4,22.8-29.6,43.5-52.7,58c-11.5,7.2-24.2,13-37.5,16.8c-3.3,1-6.7,1.7-10.1,2.6
		c-3.4,0.6-6.8,1.4-10.2,1.8l-5.2,0.7l-5.6,0.4l-2.8,0.2l-2.1,0.1l-4.3,0.1c-1.5,0-0.6,0-1,0h-0.3h-0.7h-1.3l-2.6-0.1
		c-1.7,0-3.5-0.1-5.2-0.3l-5.2-0.4l-5.2-0.7c-3.4-0.4-6.8-1.2-10.2-1.8c-3.4-0.8-6.8-1.5-10.1-2.6c-13.3-3.8-25.9-9.6-37.5-16.8
		c-23-14.5-41.3-35.1-52.7-58c-5.7-11.4-9.8-23.4-12.2-35.3c-1.1-6-2-11.9-2.4-17.8c-0.1-1.5-0.2-2.9-0.3-4.4c0-1.6-0.1-3.1-0.1-4.7
		c-0.1-3.4,0.1-5.5,0.2-8l0.1-2.4l0.2-2.1c0.2-1.4,0.3-2.8,0.5-4.2c0.2-1.4,0.3-2.8,0.5-4.2l0.3-2.1l0.4-2c0.5-2.7,1.1-5.4,1.6-8
		l0.4-2l0.6-1.9c0.4-1.3,0.8-2.6,1.2-3.8c2.9-10.2,7.2-19.5,11.8-28c9.7-16.8,21.9-29.6,33.9-38.8c12-9.2,23.9-14.8,33.7-18.4
		c10-3.3,18.2-4.9,23.5-5.4C271.5,292.3,274.4,292,274.4,292z"/>
	<path fill="#ABB023" d="M300,266.7c0,0-1.3-2.6-3.8-7.4c-2.5-4.9-6.5-11.4-12.1-19.2c-6-7.6-13.7-16.2-23.8-24.1
		c-10.1-7.9-22.6-15-36.8-19.7c-7.2-2-14.7-4.2-22.6-4.8c-1-0.1-2-0.2-2.9-0.3l-1.5-0.2H195c-2-0.1-4-0.2-6-0.2l-1.5-0.1
		c-0.5,0-1,0-1.5,0.1c-1,0.1-2,0.1-3,0.2c-1,0-2,0.1-3.1,0.1l-1.5,0.1h-0.2c1,0,0.1,0,0.3,0H178l-0.9,0.1c-2.4,0.3-5.2,0.5-6.7,0.8
		l-2.8,0.4l-3,0.6c-4.1,0.8-8.1,2-12.1,3.3c-7.9,2.8-15.7,6.4-23,11c-14.6,9.2-27.1,22.2-35.8,37.6c-2.1,3.9-4.1,7.8-5.7,11.9
		c-1.6,4.1-3.1,8.3-4.2,12.6c-0.6,2.1-1,4.3-1.5,6.5l-0.5,3.3c-0.2,1.1-0.4,2.2-0.5,3.3l-0.4,3.3l-0.2,3.3c-0.1,1.1-0.2,2.2-0.2,3.3
		v1.7v0.8v0.4v0.2c0-0.2,0,0.8,0-0.5l0.1,4.3v2.1l0.1,1.5l0.2,2.9l0.4,3.3c0.2,2.2,0.7,4.4,1,6.6c0.5,2.2,0.9,4.3,1.5,6.5
		c1.1,4.3,2.6,8.5,4.2,12.6s3.6,8,5.8,11.9c8.7,15.3,21.2,28.4,35.8,37.5c7.3,4.6,15,8.2,23,11c8,2.7,16.2,4.3,24.4,5.2l0.8,0.1h0.4
		c-0.3,0,1,0-0.7,0h0.2l1.8,0.1c1.2,0,2.4,0.1,3.6,0.1c1.2,0,2.4,0.1,3.6,0.1h1.8l1.4-0.1c1.8-0.1,3.6-0.2,5.4-0.2h1.4l1.5-0.2
		c1-0.1,2-0.2,2.9-0.3c7.9-0.6,15.3-2.7,22.5-4.8c14.2-4.7,26.7-11.8,36.8-19.7c10.2-7.9,17.9-16.5,23.9-24.1
		c5.6-7.8,9.7-14.5,12.1-19.2c2.5-4.8,3.8-7.4,3.8-7.4s-0.2,2.9-0.7,8.3c-0.6,5.5-2.1,13.4-5.4,23.5c-3.6,9.9-9.2,21.7-18.4,33.7
		c-1.2,1.5-2.3,3-3.5,4.6c-1.3,1.4-2.7,2.9-4,4.4c-1.4,1.5-2.8,3-4.3,4.5c-1.5,1.4-3.1,2.9-4.7,4.3c-6.4,5.9-14,11-22.3,16.1
		c-8.5,4.6-17.8,8.9-28,11.8c-1.3,0.4-2.5,0.8-3.8,1.2l-1.9,0.6l-2.1,0.4c-2.8,0.5-5.7,1.1-8.6,1.6l-2.2,0.4l-1.8,0.2
		c-1.2,0.1-2.4,0.3-3.6,0.4c-1.2,0.2-2.4,0.3-3.6,0.4l-1.8,0.2l-3,0.1c-11.4,0.6-23.2-0.3-35.2-2.6c-5.9-1.3-12-2.8-17.8-4.9
		c-5.9-2-11.7-4.5-17.5-7.3c-22.8-11.4-43.5-29.6-58-52.7c-7.2-11.5-13-24.2-16.8-37.5c-1-3.3-1.7-6.7-2.6-10.1
		c-0.6-3.4-1.4-6.8-1.8-10.2l-0.7-5.2l-0.4-5.6l-0.2-2.8l-0.1-2.1l-0.2-4.1c0-1.5,0-0.6,0-1v-0.3v-0.6v-1.3l0.1-2.6
		c0-1.7,0.1-3.5,0.3-5.2l0.4-5.2l0.7-5.2c0.4-3.4,1.2-6.8,1.8-10.2c0.8-3.4,1.5-6.8,2.6-10.1c3.8-13.3,9.6-25.9,16.8-37.5
		c14.5-23,35.1-41.3,58-52.7c11.4-5.7,23.4-9.8,35.3-12.2c6-1.1,11.9-2,17.8-2.4c1.5-0.1,2.9-0.2,4.4-0.3c1.6,0,3.1-0.1,4.7-0.1
		c3.4-0.1,5.5,0.1,8,0.2l2.4,0.1l2.1,0.2c1.4,0.2,2.8,0.3,4.2,0.5s2.8,0.3,4.2,0.5l2.1,0.2l2,0.4c2.7,0.5,5.4,1.1,8,1.6l2,0.4
		l1.9,0.6c1.3,0.4,2.6,0.8,3.8,1.2c10.2,2.9,19.5,7.2,27.9,11.8c16.8,9.7,29.6,21.8,38.8,33.9c9.2,12,14.8,23.9,18.4,33.7
		c3.3,10,4.9,18.2,5.4,23.5C299.8,263.8,300,266.7,300,266.7z"/>
</svg>
